<svg xmlns="http://www.w3.org/2000/svg" width="62" height="62" fill="none" viewBox="0 0 62 62">
  <circle cx="31" cy="31" r="30.5" fill="#F8F8F8" stroke="#ECECEC"/>
  <path fill="#000" d="M31 37a6 6 0 1 1 0-12 6 6 0 0 1 0 12Zm-1-17h2v3h-2v-3Zm0 19h2v3h-2v-3Zm-7.485-15.071 1.414-1.414 2.121 2.121-1.414 1.414-2.121-2.121ZM35.95 37.364l1.414-1.414 2.121 2.121-1.414 1.414-2.121-2.121Zm2.121-14.85 1.414 1.415-2.121 2.121-1.414-1.414 2.121-2.121ZM24.636 35.95l1.414 1.414-2.121 2.121-1.414-1.414 2.121-2.121ZM42 30v2h-3v-2h3Zm-19 0v2h-3v-2h3Z"/>
</svg>
